<svg xmlns="http://www.w3.org/2000/svg" viewBox="0 0 64 64" width="64" height="64">
  <defs>
    <linearGradient id="grad" x1="0%" y1="0%" x2="100%" y2="100%">
      <stop offset="0%" style="stop-color:#3b82f6"/>
      <stop offset="100%" style="stop-color:#1e40af"/>
    </linearGradient>
  </defs>
  
  <!-- Background -->
  <rect width="64" height="64" rx="12" fill="url(#grad)"/>
  
  <!-- Dollar sign -->
  <g transform="translate(32, 32)">
    <!-- Vertical line -->
    <rect x="-2" y="-24" width="4" height="48" fill="white" rx="2"/>
    
    <!-- S shape -->
    <path d="M -12 -16 Q -12 -20 -8 -20 L 8 -20 Q 12 -20 12 -16 Q 12 -12 8 -12 L -4 -12 Q -8 -12 -8 -8 Q -8 -4 -4 -4 L 8 -4 Q 12 -4 12 0 Q 12 4 8 4 L -8 4 Q -12 4 -12 8 Q -12 12 -8 12 L 4 12 Q 8 12 8 16 Q 8 20 4 20 L -8 20 Q -12 20 -12 16" 
          stroke="white" stroke-width="6" stroke-linecap="round" fill="none"/>
  </g>
</svg>