<svg xmlns="http://www.w3.org/2000/svg" viewBox="0 0 64 64" width="64" height="64">
  <defs>
    <linearGradient id="simpleGradient" x1="0%" y1="0%" x2="100%" y2="100%">
      <stop offset="0%" style="stop-color:#3b82f6;stop-opacity:1" />
      <stop offset="100%" style="stop-color:#1e40af;stop-opacity:1" />
    </linearGradient>
  </defs>
  
  <!-- Background circle -->
  <circle cx="32" cy="32" r="28" fill="url(#simpleGradient)" stroke="#1e40af" stroke-width="2"/>
  
  <!-- Simple Dollar sign -->
  <g transform="translate(32, 32)">
    <!-- Vertical line -->
    <rect x="-2" y="-20" width="4" height="40" fill="white" rx="2"/>
    
    <!-- S shape - simplified -->
    <path d="M -12 -12 Q -12 -16 -8 -16 L 8 -16 Q 12 -16 12 -12 Q 12 -8 8 -8 L -4 -8 Q -8 -8 -8 -4 Q -8 0 -4 0 L 8 0 Q 12 0 12 4 Q 12 8 8 8 L -8 8 Q -12 8 -12 4 Q -12 0 -8 0" 
          stroke="white" stroke-width="4" stroke-linecap="round" fill="none"/>
  </g>
</svg>