<svg xmlns="http://www.w3.org/2000/svg" viewBox="0 0 64 64" width="64" height="64">
  <defs>
    <!-- Pie segment gradients (unchanged) -->
    <linearGradient id="segment1" x1="0%" y1="0%" x2="100%" y2="100%">
      <stop offset="0%" style="stop-color:#8b5cf6;stop-opacity:1" />
      <stop offset="100%" style="stop-color:#7c3aed;stop-opacity:1" />
    </linearGradient>
    <linearGradient id="segment2" x1="0%" y1="0%" x2="100%" y2="100%">
      <stop offset="0%" style="stop-color:#a78bfa;stop-opacity:1" />
      <stop offset="100%" style="stop-color:#8b5cf6;stop-opacity:1" />
    </linearGradient>
    <linearGradient id="segment3" x1="0%" y1="0%" x2="100%" y2="100%">
      <stop offset="0%" style="stop-color:#c4b5fd;stop-opacity:1" />
      <stop offset="100%" style="stop-color:#a78bfa;stop-opacity:1" />
    </linearGradient>
    <linearGradient id="segment4" x1="0%" y1="0%" x2="100%" y2="100%">
      <stop offset="0%" style="stop-color:#ddd6fe;stop-opacity:1" />
      <stop offset="100%" style="stop-color:#c4b5fd;stop-opacity:1" />
    </linearGradient>
    <linearGradient id="segment5" x1="0%" y1="0%" x2="100%" y2="100%">
      <stop offset="0%" style="stop-color:#6366f1;stop-opacity:1" />
      <stop offset="100%" style="stop-color:#4f46e5;stop-opacity:1" />
    </linearGradient>
    <linearGradient id="segment6" x1="0%" y1="0%" x2="100%" y2="100%">
      <stop offset="0%" style="stop-color:#818cf8;stop-opacity:1" />
      <stop offset="100%" style="stop-color:#6366f1;stop-opacity:1" />
    </linearGradient>

    <!-- Gradient for $ sign -->
    <linearGradient id="dollarGradient" x1="0%" y1="0%" x2="100%" y2="100%">
      <stop offset="0%" stop-color="#1e293b"/>
      <stop offset="100%" stop-color="#334155"/>
      <!-- <stop offset="0%" stop-color="#4c1d95"/>
      <stop offset="100%" stop-color="#5b21b6"/> -->
    </linearGradient>

    <!-- Neon glow effect -->
    <filter id="glow" x="-50%" y="-50%" width="200%" height="200%">
      <feGaussianBlur stdDeviation="1.5" result="coloredBlur"/>
      <feMerge>
        <feMergeNode in="coloredBlur"/>
        <feMergeNode in="SourceGraphic"/>
      </feMerge>
    </filter>
  </defs>

  <!-- Pie chart segments -->
  <g transform="translate(32, 32)">
    <path d="M 0,0 L 0,-28 A 28,28 0 0,1 24.25,-14 Z" fill="url(#segment1)"/>
    <path d="M 0,0 L 24.25,-14 A 28,28 0 0,1 24.25,14 Z" fill="url(#segment2)"/>
    <path d="M 0,0 L 24.25,14 A 28,28 0 0,1 0,28 Z" fill="url(#segment3)"/>
    <path d="M 0,0 L 0,28 A 28,28 0 0,1 -24.25,14 Z" fill="url(#segment4)"/>
    <path d="M 0,0 L -24.25,14 A 28,28 0 0,1 -24.25,-14 Z" fill="url(#segment5)"/>
    <path d="M 0,0 L -24.25,-14 A 28,28 0 0,1 0,-28 Z" fill="url(#segment6)"/>
  </g>

  <!-- White circle behind the dollar -->
  <circle cx="32" cy="32" r="16" fill="white" />

  <!-- Flashy Dollar Sign -->
  <text x="32" y="40"
        text-anchor="middle"
        font-size="24"
        font-family="Segoe UI, Arial, sans-serif"
        font-weight="bold"
        fill="url(#dollarGradient)"
        filter="url(#glow)">
    $
  </text>

  <!-- Outer subtle ring -->
  <circle cx="32" cy="32" r="30" fill="none" stroke="#e2e8f0" stroke-width="1" opacity="0.3"/>
</svg>
